<svg xmlns="http://www.w3.org/2000/svg" viewBox="0 0 210 297" width="210mm" height="297mm">
  <rect width="210" height="297" fill="#ffffff"/>
  <rect x="10" y="15" width="190" height="35" fill="none" stroke="#000" stroke-width="0.2"/>
  <rect x="10" y="55" width="190" height="30" fill="none" stroke="#000" stroke-width="0.2"/>
  <rect x="10" y="90" width="190" height="70" fill="none" stroke="#000" stroke-width="0.2"/>
  <rect x="10" y="165" width="190" height="40" fill="none" stroke="#000" stroke-width="0.2"/>
  <rect x="10" y="210" width="190" height="35" fill="none" stroke="#000" stroke-width="0.2"/>
  <rect x="10" y="250" width="190" height="35" fill="none" stroke="#000" stroke-width="0.2"/>
  <path d="M105 15v35M105 55v30M105 90v70M105 165v40M105 210v35M105 250v35" stroke="#000" stroke-width="0.1"/>
  <path d="M10 35h190M10 75h190M10 115h190M10 140h190M10 190h190M10 235h190" stroke="#000" stroke-width="0.1"/>
</svg>
